<svg xmlns="http://www.w3.org/2000/svg" viewBox="0 0 327.95 89.38"><g id="Camada_2" data-name="Camada 2"><g id="Camada_1-2" data-name="Camada 1"><g id="Camada_2-2" data-name="Camada 2"><g id="Camada_1-2-2" data-name="Camada 1-2"><path d="M54.94,2.11H1.87A1.88,1.88,0,0,0,0,4H0V87.51a1.87,1.87,0,0,0,1.87,1.87H19.38a1.87,1.87,0,0,0,1.88-1.86h0V56a1.87,1.87,0,0,1,1.87-1.87H53.86a1.88,1.88,0,0,0,1.88-1.88h0V39.42a1.88,1.88,0,0,0-1.88-1.88H23.13a1.87,1.87,0,0,1-1.87-1.87V21a1.87,1.87,0,0,1,1.87-1.87H54.94a1.89,1.89,0,0,0,1.87-1.88V4a1.88,1.88,0,0,0-1.87-1.89Z"/><path d="M282.2,2.11H251.38A1.88,1.88,0,0,0,249.51,4h0V87.51a1.87,1.87,0,0,0,1.87,1.87H282.2c27.85,0,45.75-17.77,45.75-43.63S310.05,2.11,282.2,2.11Zm23.06,52.24C302.38,65,293.74,71,280.84,71h-8.2a1.87,1.87,0,0,1-1.87-1.87h0v-47a1.87,1.87,0,0,1,1.86-1.88h6.11C296.58,20.26,309.91,37.13,305.26,54.35Z"/><circle cx="109.09" cy="44.69" r="4.08"/><path d="M197.36,0c-22.07,0-40.47,14.63-44.19,36.4C149.5,14.63,131.39,0,109.21,0,84.47,0,64.33,18.4,64.33,44.63s20.14,44.75,44.88,44.75c22.07,0,40.28-14.73,44-36.53,3.73,21.8,22.13,36.53,44.2,36.53C222.1,89.38,242,70.86,242,44.63S222.22,0,197.36,0ZM109.21,70C95,70,86.09,59.92,86.09,44.63c0-15.54,9-25.36,23.12-25.36,13.93,0,23,9.82,23,25.36C132.21,59.92,123.14,70,109.21,70Zm88.15,0c-14.18,0-23.13-10.07-23.13-25.36,0-15.54,9-25.36,23.13-25.36,13.92,0,23,9.82,23,25.36C220.36,59.92,211.28,70,197.36,70Z"/><circle cx="197.23" cy="44.69" r="4.08"/></g></g></g></g></svg>